<mxfile host="65bd71144e">
    <diagram id="6d2JyYbpDpj8Se8zqUEZ" name="ページ1">
        <mxGraphModel dx="727" dy="907" grid="1" gridSize="10" guides="1" tooltips="1" connect="1" arrows="1" fold="1" page="1" pageScale="1" pageWidth="827" pageHeight="1169" math="0" shadow="0">
            <root>
                <mxCell id="0"/>
                <mxCell id="1" parent="0"/>
                <mxCell id="6" style="edgeStyle=none;html=1;exitX=0.5;exitY=1;exitDx=0;exitDy=0;" edge="1" parent="1" source="2" target="4">
                    <mxGeometry relative="1" as="geometry"/>
                </mxCell>
                <mxCell id="2" value="start" style="rounded=1;whiteSpace=wrap;html=1;" vertex="1" parent="1">
                    <mxGeometry x="365" width="70" height="30" as="geometry"/>
                </mxCell>
                <mxCell id="8" value="YES" style="edgeStyle=none;html=1;exitX=1;exitY=0.5;exitDx=0;exitDy=0;" edge="1" parent="1" source="4" target="7">
                    <mxGeometry relative="1" as="geometry"/>
                </mxCell>
                <mxCell id="30" value="NO" style="edgeStyle=none;html=1;exitX=0;exitY=0.5;exitDx=0;exitDy=0;" edge="1" parent="1" source="4" target="29">
                    <mxGeometry relative="1" as="geometry">
                        <mxPoint x="280" y="110" as="sourcePoint"/>
                    </mxGeometry>
                </mxCell>
                <mxCell id="4" value="消費量&amp;gt;発電量" style="rhombus;whiteSpace=wrap;html=1;" vertex="1" parent="1">
                    <mxGeometry x="340" y="70" width="120" height="80" as="geometry"/>
                </mxCell>
                <mxCell id="10" value="" style="edgeStyle=none;html=1;" edge="1" parent="1" source="7" target="9">
                    <mxGeometry relative="1" as="geometry"/>
                </mxCell>
                <mxCell id="7" value="電力供給&lt;br&gt;・発電量&lt;br&gt;・放電量" style="rounded=0;whiteSpace=wrap;html=1;" vertex="1" parent="1">
                    <mxGeometry x="510" y="80" width="120" height="60" as="geometry"/>
                </mxCell>
                <mxCell id="14" value="YES" style="edgeStyle=none;html=1;" edge="1" parent="1" source="9" target="11">
                    <mxGeometry relative="1" as="geometry"/>
                </mxCell>
                <mxCell id="26" value="NO" style="edgeStyle=none;html=1;" edge="1" parent="1" source="9">
                    <mxGeometry x="-0.9365" relative="1" as="geometry">
                        <mxPoint x="470" y="820" as="targetPoint"/>
                        <Array as="points">
                            <mxPoint x="470" y="210"/>
                            <mxPoint x="470" y="690"/>
                        </Array>
                        <mxPoint as="offset"/>
                    </mxGeometry>
                </mxCell>
                <mxCell id="9" value="消費量&amp;gt;0" style="rhombus;whiteSpace=wrap;html=1;" vertex="1" parent="1">
                    <mxGeometry x="510" y="170" width="120" height="80" as="geometry"/>
                </mxCell>
                <mxCell id="16" value="" style="edgeStyle=none;html=1;" edge="1" parent="1" source="11" target="15">
                    <mxGeometry relative="1" as="geometry"/>
                </mxCell>
                <mxCell id="11" value="電力購入リクエスト" style="rounded=0;whiteSpace=wrap;html=1;" vertex="1" parent="1">
                    <mxGeometry x="510" y="280" width="120" height="60" as="geometry"/>
                </mxCell>
                <mxCell id="18" value="YES" style="edgeStyle=none;html=1;" edge="1" parent="1" source="15" target="17">
                    <mxGeometry relative="1" as="geometry"/>
                </mxCell>
                <mxCell id="27" value="NO" style="edgeStyle=none;html=1;entryX=1;entryY=0.5;entryDx=0;entryDy=0;" edge="1" parent="1" source="15" target="21">
                    <mxGeometry relative="1" as="geometry">
                        <mxPoint x="680" y="720" as="targetPoint"/>
                        <Array as="points">
                            <mxPoint x="680" y="410"/>
                            <mxPoint x="680" y="710"/>
                        </Array>
                    </mxGeometry>
                </mxCell>
                <mxCell id="15" value="購入許可" style="rhombus;whiteSpace=wrap;html=1;" vertex="1" parent="1">
                    <mxGeometry x="510" y="370" width="120" height="80" as="geometry"/>
                </mxCell>
                <mxCell id="20" value="" style="edgeStyle=none;html=1;" edge="1" parent="1" source="17" target="19">
                    <mxGeometry relative="1" as="geometry"/>
                </mxCell>
                <mxCell id="17" value="電力供給&lt;br&gt;・電力融通(もらう)" style="rounded=0;whiteSpace=wrap;html=1;" vertex="1" parent="1">
                    <mxGeometry x="510" y="480" width="120" height="60" as="geometry"/>
                </mxCell>
                <mxCell id="22" value="YES" style="edgeStyle=none;html=1;" edge="1" parent="1" source="19" target="21">
                    <mxGeometry relative="1" as="geometry"/>
                </mxCell>
                <mxCell id="28" value="NO" style="edgeStyle=none;html=1;" edge="1" parent="1" source="19">
                    <mxGeometry x="-0.84" relative="1" as="geometry">
                        <mxPoint x="470" y="820" as="targetPoint"/>
                        <Array as="points">
                            <mxPoint x="470" y="610"/>
                        </Array>
                        <mxPoint as="offset"/>
                    </mxGeometry>
                </mxCell>
                <mxCell id="19" value="消費量&amp;gt;0" style="rhombus;whiteSpace=wrap;html=1;" vertex="1" parent="1">
                    <mxGeometry x="510" y="570" width="120" height="80" as="geometry"/>
                </mxCell>
                <mxCell id="25" style="edgeStyle=none;html=1;entryX=1;entryY=0.5;entryDx=0;entryDy=0;" edge="1" parent="1" source="21" target="24">
                    <mxGeometry relative="1" as="geometry">
                        <mxPoint x="510" y="815" as="targetPoint"/>
                        <Array as="points">
                            <mxPoint x="570" y="800"/>
                            <mxPoint x="570" y="820"/>
                        </Array>
                    </mxGeometry>
                </mxCell>
                <mxCell id="21" value="電力供給&lt;br&gt;・系統" style="rounded=0;whiteSpace=wrap;html=1;" vertex="1" parent="1">
                    <mxGeometry x="510" y="680" width="120" height="60" as="geometry"/>
                </mxCell>
                <mxCell id="24" value="end" style="rounded=1;whiteSpace=wrap;html=1;" vertex="1" parent="1">
                    <mxGeometry x="365" y="800" width="70" height="40" as="geometry"/>
                </mxCell>
                <mxCell id="32" value="" style="edgeStyle=none;html=1;" edge="1" parent="1" source="29" target="31">
                    <mxGeometry relative="1" as="geometry"/>
                </mxCell>
                <mxCell id="29" value="電力供給&lt;br&gt;・発電量" style="rounded=0;whiteSpace=wrap;html=1;" vertex="1" parent="1">
                    <mxGeometry x="110" y="80" width="120" height="60" as="geometry"/>
                </mxCell>
                <mxCell id="43" value="YES" style="edgeStyle=none;html=1;" edge="1" parent="1" source="31" target="41">
                    <mxGeometry relative="1" as="geometry"/>
                </mxCell>
                <mxCell id="49" value="NO" style="edgeStyle=none;html=1;" edge="1" parent="1" source="31">
                    <mxGeometry x="-0.9394" relative="1" as="geometry">
                        <mxPoint x="270" y="820" as="targetPoint"/>
                        <Array as="points">
                            <mxPoint x="270" y="210"/>
                        </Array>
                        <mxPoint as="offset"/>
                    </mxGeometry>
                </mxCell>
                <mxCell id="31" value="発電余剰&amp;gt;0" style="rhombus;whiteSpace=wrap;html=1;" vertex="1" parent="1">
                    <mxGeometry x="110" y="170" width="120" height="80" as="geometry"/>
                </mxCell>
                <mxCell id="36" value="" style="edgeStyle=none;html=1;" edge="1" parent="1" source="33" target="35">
                    <mxGeometry relative="1" as="geometry"/>
                </mxCell>
                <mxCell id="33" value="電力売却リクエスト" style="rounded=0;whiteSpace=wrap;html=1;" vertex="1" parent="1">
                    <mxGeometry x="110" y="390" width="120" height="60" as="geometry"/>
                </mxCell>
                <mxCell id="38" value="YES" style="edgeStyle=none;html=1;" edge="1" parent="1" source="35" target="37">
                    <mxGeometry relative="1" as="geometry"/>
                </mxCell>
                <mxCell id="46" value="NO" style="edgeStyle=none;html=1;entryX=0;entryY=0.5;entryDx=0;entryDy=0;" edge="1" parent="1" source="35" target="44">
                    <mxGeometry relative="1" as="geometry">
                        <mxPoint x="60" y="820" as="targetPoint"/>
                        <Array as="points">
                            <mxPoint x="60" y="520"/>
                            <mxPoint x="60" y="820"/>
                        </Array>
                    </mxGeometry>
                </mxCell>
                <mxCell id="35" value="売却許可" style="rhombus;whiteSpace=wrap;html=1;" vertex="1" parent="1">
                    <mxGeometry x="110" y="480" width="120" height="80" as="geometry"/>
                </mxCell>
                <mxCell id="40" value="" style="edgeStyle=none;html=1;" edge="1" parent="1" source="37" target="39">
                    <mxGeometry relative="1" as="geometry"/>
                </mxCell>
                <mxCell id="37" value="電力売却&lt;br&gt;・電力融通" style="rounded=0;whiteSpace=wrap;html=1;" vertex="1" parent="1">
                    <mxGeometry x="110" y="590" width="120" height="60" as="geometry"/>
                </mxCell>
                <mxCell id="45" value="YES" style="edgeStyle=none;html=1;" edge="1" parent="1" source="39" target="44">
                    <mxGeometry relative="1" as="geometry"/>
                </mxCell>
                <mxCell id="48" value="NO" style="edgeStyle=none;html=1;" edge="1" parent="1" source="39">
                    <mxGeometry x="-0.7143" relative="1" as="geometry">
                        <mxPoint x="270" y="820" as="targetPoint"/>
                        <Array as="points">
                            <mxPoint x="270" y="720"/>
                        </Array>
                        <mxPoint as="offset"/>
                    </mxGeometry>
                </mxCell>
                <mxCell id="39" value="発電余剰&amp;gt;0" style="rhombus;whiteSpace=wrap;html=1;" vertex="1" parent="1">
                    <mxGeometry x="110" y="680" width="120" height="80" as="geometry"/>
                </mxCell>
                <mxCell id="51" value="YES" style="edgeStyle=none;html=1;entryX=0;entryY=0.5;entryDx=0;entryDy=0;" edge="1" parent="1" source="41" target="50">
                    <mxGeometry x="0.0032" relative="1" as="geometry">
                        <mxPoint x="270" y="320" as="targetPoint"/>
                        <mxPoint as="offset"/>
                    </mxGeometry>
                </mxCell>
                <mxCell id="54" value="NO" style="edgeStyle=none;html=1;" edge="1" parent="1" source="41" target="33">
                    <mxGeometry relative="1" as="geometry"/>
                </mxCell>
                <mxCell id="41" value="空き容量&amp;gt;0" style="rhombus;whiteSpace=wrap;html=1;" vertex="1" parent="1">
                    <mxGeometry x="110" y="280" width="120" height="80" as="geometry"/>
                </mxCell>
                <mxCell id="47" value="" style="edgeStyle=none;html=1;" edge="1" parent="1" source="44" target="24">
                    <mxGeometry relative="1" as="geometry"/>
                </mxCell>
                <mxCell id="44" value="電力売却&lt;br&gt;・系統" style="rounded=0;whiteSpace=wrap;html=1;" vertex="1" parent="1">
                    <mxGeometry x="110" y="790" width="120" height="60" as="geometry"/>
                </mxCell>
                <mxCell id="55" style="edgeStyle=none;html=1;entryX=0.5;entryY=0;entryDx=0;entryDy=0;" edge="1" parent="1" source="50" target="56">
                    <mxGeometry relative="1" as="geometry">
                        <mxPoint x="70" y="380" as="targetPoint"/>
                    </mxGeometry>
                </mxCell>
                <mxCell id="50" value="充電&lt;br&gt;・発電余剰" style="rounded=0;whiteSpace=wrap;html=1;" vertex="1" parent="1">
                    <mxGeometry x="294" y="290" width="120" height="60" as="geometry"/>
                </mxCell>
                <mxCell id="57" value="YES" style="edgeStyle=none;html=1;exitX=0;exitY=0.5;exitDx=0;exitDy=0;" edge="1" parent="1" source="56" target="33">
                    <mxGeometry relative="1" as="geometry">
                        <mxPoint x="270" y="420" as="sourcePoint"/>
                        <mxPoint as="offset"/>
                    </mxGeometry>
                </mxCell>
                <mxCell id="59" value="NO" style="edgeStyle=none;html=1;" edge="1" parent="1" source="56">
                    <mxGeometry relative="1" as="geometry">
                        <mxPoint x="270" y="610" as="targetPoint"/>
                        <Array as="points">
                            <mxPoint x="354" y="610"/>
                        </Array>
                    </mxGeometry>
                </mxCell>
                <mxCell id="56" value="発電余剰&amp;gt;0" style="rhombus;whiteSpace=wrap;html=1;" vertex="1" parent="1">
                    <mxGeometry x="294" y="380" width="120" height="80" as="geometry"/>
                </mxCell>
            </root>
        </mxGraphModel>
    </diagram>
</mxfile>